<?xml version="1.0" encoding="utf-8"?>
<!-- Generator: Adobe Illustrator 16.0.0, SVG Export Plug-In . SVG Version: 6.00 Build 0)  -->
<!DOCTYPE svg PUBLIC "-//W3C//DTD SVG 1.1//EN" "http://www.w3.org/Graphics/SVG/1.1/DTD/svg11.dtd">
<svg version="1.1" id="Layer_1" xmlns="http://www.w3.org/2000/svg" xmlns:xlink="http://www.w3.org/1999/xlink" x="0px" y="0px"
	 width="1197.588px" height="520.268px" viewBox="0 0 1197.588 520.268" enable-background="new 0 0 1197.588 520.268"
	 xml:space="preserve">
<rect fill="transparent" width="1197.588" height="520.268"/>
<g>
	<g>
		<g>
			<path fill="#ffffff" d="M172.562,399.12v33.081c0,15.523-8.809,24.742-23.775,24.742c-15.041,0-23.854-9.219-23.854-24.742
				V399.12h7.118v33.396c0,11.003,5.822,17.797,16.736,17.797c10.922,0,16.659-6.794,16.659-17.797V399.12H172.562z"/>
			<polygon fill="#ffffff" points="233.255,399.12 233.255,455.729 226.627,455.729 194.432,413.196 193.31,411.416 
				193.467,413.756 193.467,455.729 186.431,455.729 186.431,399.12 192.985,399.12 225.252,441.419 226.305,443.275 
				226.138,440.931 226.138,399.12 			"/>
			<polygon fill="#ffffff" points="318.931,399.12 318.931,405.669 300.085,405.669 300.085,455.729 293.052,455.729 
				293.052,405.669 274.284,405.669 274.284,399.12 			"/>
			<polygon fill="#ffffff" points="367.166,449.179 367.166,455.729 328.674,455.729 328.674,399.12 366.672,399.12 
				366.672,405.669 335.705,405.669 335.705,422.734 360.615,422.734 360.615,429.128 335.705,429.128 335.705,449.179 			"/>
			<path fill="#ffffff" d="M419.156,414.727c-3.721-6.061-10.757-9.865-18.518-9.865c-12.7,0-22.08,9.141-22.08,22.565
				c0,13.42,9.623,22.481,22.08,22.481c8.567,0,16.008-4.53,19.566-11.404l7.04,1.941c-4.769,10.028-14.719,16.412-26.606,16.412
				c-16.254,0-29.363-12.367-29.363-29.431c0-17.068,13.109-29.441,29.363-29.441c11.154,0,20.7,5.827,25.708,14.797
				L419.156,414.727z"/>
			<polygon fill="#ffffff" points="481.216,399.12 481.216,455.729 474.188,455.729 474.188,429.771 443.776,429.771 
				443.776,455.729 436.737,455.729 436.737,399.12 443.776,399.12 443.776,423.135 474.188,423.135 474.188,399.12 			"/>
			<path fill="#ffffff" d="M522.015,397.985c16.254,0,29.439,12.373,29.439,29.441c0,17.063-13.186,29.431-29.439,29.431
				c-16.255,0-29.355-12.367-29.355-29.431C492.659,410.358,505.759,397.985,522.015,397.985 M522.015,449.988
				c12.618,0,22.161-9.214,22.161-22.562c0-13.51-9.542-22.565-22.161-22.565c-12.619,0-22.077,9.056-22.077,22.565
				C499.938,440.774,509.396,449.988,522.015,449.988"/>
			<path fill="#ffffff" d="M611.248,399.12c13.256,0,21.186,6.793,21.186,18.112c0,11.327-7.93,18.203-21.186,18.203H600.65v20.293
				h-7.041V399.12H611.248z M611.163,428.804c9.057,0,13.995-4.374,13.995-11.571c0-7.44-5.339-11.563-13.995-11.563H600.65v23.135
				H611.163z"/>
			<path fill="#ffffff" d="M675.742,441.98H643.88l-6.882,13.748h-7.76l28.299-56.608h4.529l28.307,56.608h-7.762L675.742,441.98z
				 M672.508,435.436l-12.135-24.268l-0.566-1.696l-0.566,1.696l-12.13,24.268H672.508z"/>
			<path fill="#ffffff" d="M731.74,455.729l-13.186-21.022c-0.727,0.072-1.615,0.072-2.425,0.072h-10.429v20.95h-7.043V399.12
				h17.472c13.345,0,21.353,6.793,21.353,17.792c0,8.086-4.287,13.906-11.811,16.42l13.985,22.396H731.74z M716.854,428.152
				c8.817,0,13.35-4.608,13.35-11.24c0-6.961-4.937-11.243-13.35-11.243h-11.153v22.483H716.854z"/>
			<path fill="#ffffff" d="M790.968,441.98h-31.858l-6.873,13.748h-7.769l28.308-56.608h4.534l28.303,56.608h-7.767L790.968,441.98z
				 M787.733,435.436l-12.129-24.268l-0.568-1.696l-0.562,1.696l-12.131,24.268H787.733z"/>
			<g>
				<path fill="#ffffff" d="M887.815,414.041c-3.944-6.293-11.263-10.213-19.315-10.213c-13.151,0-22.927,9.393-22.927,23.196
					c0,13.807,10.027,23.118,22.927,23.118c8.794,0,16.516-4.654,20.295-11.847l6.658,1.8c-4.76,10.132-14.958,16.67-26.953,16.67
					c-16.517,0-29.838-12.502-29.838-29.741c0-17.232,13.321-29.735,29.838-29.735c11.256,0,20.955,5.884,26.133,15.037
					L887.815,414.041z"/>
				<path fill="#ffffff" d="M952.256,398.438v57.184h-6.663v-26.472h-31.47v26.472h-6.741v-57.184h6.741v24.421h31.47v-24.421
					H952.256z"/>
				<path fill="#ffffff" d="M969.767,455.621v-57.184h6.742v57.184H969.767z"/>
				<path fill="#ffffff" d="M1031.497,449.328v6.293h-37.552v-57.184h6.738v50.891H1031.497z"/>
				<path fill="#ffffff" d="M1081.805,449.328v6.293h-38.87v-57.184h38.381v6.289h-31.642v17.646h25.392v5.964h-25.392v20.991
					H1081.805z"/>
			</g>
		</g>
	</g>
	<path fill="#ffffff" d="M992.674,63.45c-41.938,0-79.624,18.257-105.524,47.234V73.773c-0.021-4.632-4.759-4.186-4.759-4.186
		h-62.935c-2.334,0-4.215,1.89-4.215,4.212v94.085c0,2.325-1.88,4.203-4.19,4.203h-63.558c-2.327,0-4.21-1.878-4.21-4.203V73.8
		c0-2.322-1.885-4.212-4.182-4.212h-63.6c-2.34,0-4.207,1.89-4.207,4.212v53.404c-11.105-16.282-22.844-29.055-35.272-38.207
		c-23.358-17.252-52.475-25.671-87.715-25.671c-40.233,0-74.703,13.395-103.424,39.848c-20.154,18.588-33.478,40.037-39.917,64.465
		c-0.592,2.249-2.891,4.086-5.205,4.086H323.1c-2.315,0-4.198-1.878-4.198-4.214V136.7c0-2.333,1.883-4.2,4.198-4.2h86.721
		c2.328,0,4.207-1.883,4.197-4.208L413.851,73.8c-0.021-2.322-1.898-4.212-4.228-4.212L67.516,69.497
		c-2.324,0-4.191,1.883-4.191,4.195v54.6c0,2.325,1.867,4.208,4.191,4.208h54.918c2.333,0,4.213,1.867,4.213,4.2v199.755
		c0,2.319,1.882,4.206,4.197,4.206h63.215c2.329,0,4.196-1.887,4.196-4.206V136.7c0-2.333,1.899-4.2,4.232-4.2h41.67
		c2.32,0,4.197,1.867,4.197,4.2v199.906c0,2.324,1.879,4.214,4.213,4.214h157.056c2.329,0,4.207-1.89,4.207-4.214v-55.176
		c0-2.335-1.878-4.224-4.207-4.224H323.1c-2.315,0-4.198-1.86-4.198-4.185v-35.044c0-2.334,1.883-4.224,4.198-4.224h75.978
		c2.313,0,4.552,1.859,5.057,4.127c5.895,26.235,18.915,49.167,39.215,68.647c28.336,26.812,63.212,40.218,104.583,40.218
		c34.846,0,63.574-8.033,86.555-24.498c13.104-9.645,25.399-22.977,36.807-40.063v54.27c0,2.319,1.867,4.206,4.207,4.206h63.6
		c2.297,0,4.182-1.887,4.182-4.206v-94.28c0-2.323,1.883-4.196,4.21-4.196h63.558c2.311,0,4.19,1.873,4.19,4.196v94.28
		c0,2.319,1.881,4.206,4.215,4.206h64.493c0,0,3.103,0.335,3.2-2.84v-38.455c25.9,28.989,63.587,47.249,105.524,47.249
		c78.207,0,141.589-63.394,141.589-141.59C1134.263,126.838,1070.881,63.45,992.674,63.45 M671.295,250.594l-61.993,0.457
		c-2.325,0.021-5.296,1.572-6.76,3.369c-13.324,16.226-32.005,24.746-55.005,24.746c-21.064,0-38.296-7.864-52.482-22.043
		c-14.17-14.17-21.064-31.787-21.064-52.853c0-20.299,7.273-37.146,21.458-50.93c14.544-13.8,31.8-20.695,52.088-20.695
		c22.757,0,41.763,8.865,56.715,26.246c1.516,1.771,4.543,3.256,6.863,3.256h60.18V250.594z M1092.913,205.637h-35.396
		c-3.444,0-6.195,2.791-6.195,6.213v61.142c0,3.422-2.795,6.195-6.242,6.195h-99.273c-3.415,0-6.188-2.773-6.188-6.195V211.85
		c0-3.422-2.773-6.213-6.178-6.213h-32.58c-3.435,0-4.304-1.998-1.927-4.499l93.701-98.559c2.331-2.501,6.157-2.501,8.523,0
		l93.677,98.559C1097.208,203.639,1096.356,205.637,1092.913,205.637"/>
</g>
</svg>